<?xml version="1.0" encoding="UTF-8" standalone="no"?>
<svg width="3100px" height="1300px" viewBox="0 0 3100 1300" version="1.1" xmlns="http://www.w3.org/2000/svg" xmlns:xlink="http://www.w3.org/1999/xlink">
    <!-- Generator: Sketch 3.7.2 (28276) - http://www.bohemiancoding.com/sketch -->
    <title>Logo - horizontal</title>
    <desc>Created with Sketch.</desc>
    <defs>
        <radialGradient cx="69.0965772%" cy="-3.73631402%" fx="69.0965772%" fy="-3.73631402%" r="100%" id="radialGradient-1">
            <stop stop-color="#59748B" offset="0%"></stop>
            <stop stop-color="#2D4053" offset="100%"></stop>
        </radialGradient>
        <radialGradient cx="65.9475029%" cy="-28.3967947%" fx="65.9475029%" fy="-28.3967947%" r="100%" id="radialGradient-2">
            <stop stop-color="#34DBC4" offset="0%"></stop>
            <stop stop-color="#18B491" offset="100%"></stop>
        </radialGradient>
    </defs>
    <g id="Page-1" stroke="none" stroke-width="1" fill="none" fill-rule="evenodd">
        <g id="Logo---horizontal">
            <g transform="translate(126.000000, 139.000000)">
                <g id="strata">
                    <path d="M183.624408,634.416604 L421.543664,450.798323 C429.767045,444.451787 444.699687,440.694696 454.968657,442.418715 L780.082739,497.00088 L761.102712,514.094295 L451.657276,462.142679 C446.895344,461.343216 437.588545,463.679017 433.763094,466.631374 L208.381442,640.573544 L183.624408,634.416604 Z M143.943099,665.041338 L26.4977879,755.681778 C-14.5221879,787.339651 -7.10182797,823.564053 43.1092119,836.562238 L439.254512,939.112792 C449.319705,941.718379 459.556946,951.94152 462.142561,961.952648 L475.242376,1012.67324 C477.830939,1022.69578 486.038883,1025.03193 493.581917,1017.91666 L937.406029,599.261999 C975.127345,563.679875 964.187514,527.90953 913.021336,519.319435 L832.559923,505.811075 L813.579896,522.904489 L909.709955,539.043399 C927.86595,542.09154 937.433347,548.507145 939.417974,555.008208 C941.397552,561.492732 937.04917,572.104656 923.682442,584.713351 L490.836214,993.01269 L481.507125,956.951283 C477.100081,939.887845 461.358137,924.175505 444.266712,919.751029 L48.1214119,817.200476 C30.3433573,812.598252 21.4944855,805.486769 20.1835846,799.098859 C18.8742755,792.718706 24.2009681,782.717996 38.7172181,771.51483 L168.700133,671.198278 L143.943099,665.041338 Z" id="Combined-Shape" fill="url(#radialGradient-1)"></path>
                    <path d="M205.161079,409.795307 L421.543664,242.798323 C429.767045,236.451787 444.699687,232.694696 454.968657,234.418715 L763.039187,286.139503 L744.05916,303.232918 L451.657276,254.142679 C446.895344,253.343216 437.588545,255.679017 433.763094,258.631374 L229.918113,415.952247 L205.161079,409.795307 Z M169.425676,437.37472 L26.4977879,547.681778 C-14.5221879,579.339651 -7.10182797,615.564053 43.1092119,628.562238 L439.254512,731.112792 C449.319705,733.718379 459.556946,743.94152 462.142561,753.952648 L475.242376,804.673238 C477.830939,814.69578 486.038883,817.031928 493.581917,809.916663 L937.406029,391.261999 C975.127345,355.679875 964.187514,319.90953 913.021336,311.319435 L809.616247,293.959149 L790.63622,311.052563 L909.709955,331.043399 C927.86595,334.09154 937.433347,340.507145 939.417974,347.008208 C941.397552,353.492732 937.04917,364.104656 923.682442,376.713351 L490.83008,785.018476 L481.507125,748.951283 C477.100081,731.887845 461.358137,716.175505 444.266712,711.751029 L48.1214119,609.200476 C30.3433573,604.598252 21.4944855,597.486769 20.1835846,591.098859 C18.8742755,584.718706 24.2009681,574.717996 38.7172181,563.51483 L194.182711,443.53166 L169.425676,437.37472 Z" id="Combined-Shape" fill="url(#radialGradient-1)"></path>
                    <path d="M454.968657,0.418714617 L913.021336,77.3194353 C964.187514,85.90953 975.127345,121.679875 937.406029,157.261999 L493.581917,575.916663 C486.038883,583.031928 477.830939,580.69578 475.242376,570.673238 L462.142561,519.952648 C459.556946,509.94152 449.319705,499.718379 439.254512,497.112792 L43.1092119,394.562238 C-7.10182797,381.564053 -14.5221879,345.339651 26.4977879,313.681778 L421.543664,8.79832262 C429.767045,2.45178679 444.699687,-1.30530359 454.968657,0.418714617 Z" id="Shape-Copy-4" fill="url(#radialGradient-2)"></path>
                </g>
                <g id="strata.chat" transform="translate(1080.000000, 250.000000)" fill="#2D4053">
                    <path d="M189.75,131 C172.499914,111.749904 148.125158,102.125 116.625,102.125 C90.62487,102.125 71.6875594,107.062451 59.8125,116.9375 C47.9374406,126.812549 42,140.124916 42,156.875 C42,165.375043 43.499985,172.437472 46.5,178.0625 C49.500015,183.687528 54.1874681,188.49998 60.5625,192.5 C66.9375319,196.50002 74.9999513,199.874986 84.75,202.625 C94.5000488,205.375014 106.249931,208.249985 120,211.25 C134.250071,214.250015 147.187442,217.562482 158.8125,221.1875 C170.437558,224.812518 180.312459,229.374973 188.4375,234.875 C196.562541,240.375027 202.812478,247.12496 207.1875,255.125 C211.562522,263.12504 213.75,272.999941 213.75,284.75 C213.75,296.500059 211.437523,306.749956 206.8125,315.5 C202.187477,324.250044 195.687542,331.562471 187.3125,337.4375 C178.937458,343.312529 168.937558,347.749985 157.3125,350.75 C145.687442,353.750015 132.750071,355.25 118.5,355.25 C76.9997925,355.25 41.8751438,342.000133 13.125,315.5 L23.25,300.125 C34.5000563,311.875059 48.2499187,321.187466 64.5,328.0625 C80.7500812,334.937534 98.9998987,338.375 119.25,338.375 C142.500116,338.375 160.687434,334.125043 173.8125,325.625 C186.937566,317.124957 193.5,304.250086 193.5,287 C193.5,278.249956 191.750017,270.812531 188.25,264.6875 C184.749982,258.562469 179.562534,253.250023 172.6875,248.75 C165.812466,244.249977 157.125053,240.375016 146.625,237.125 C136.124947,233.874984 123.87507,230.750015 109.875,227.75 C95.6249288,224.749985 83.0625544,221.562517 72.1875,218.1875 C61.3124456,214.812483 52.1875369,210.562526 44.8125,205.4375 C37.4374631,200.312474 31.8750188,194.125036 28.125,186.875 C24.3749812,179.624964 22.5,170.500055 22.5,159.5 C22.5,147.49994 24.8124769,136.875046 29.4375,127.625 C34.0625231,118.374954 40.4999588,110.562532 48.75,104.1875 C57.0000412,97.8124681 66.8749425,93.0000162 78.375,89.75 C89.8750575,86.4999837 102.62493,84.875 116.625,84.875 C133.875086,84.875 149.249932,87.4374744 162.75,92.5625 C176.250068,97.6875256 188.499945,105.499948 199.5,116 L189.75,131 Z M338.332626,343.625 C337.332621,344.125002 335.645138,345.062493 333.270126,346.4375 C330.895114,347.812507 327.895144,349.124994 324.270126,350.375 C320.645108,351.625006 316.582649,352.749995 312.082626,353.75 C307.582604,354.750005 302.707653,355.25 297.457626,355.25 C292.2076,355.25 287.270149,354.500007 282.645126,353 C278.020103,351.499993 273.957644,349.250015 270.457626,346.25 C266.957609,343.249985 264.207636,339.625021 262.207626,335.375 C260.207616,331.124979 259.207626,326.125029 259.207626,320.375 L259.207626,173.375 L231.832626,173.375 L231.832626,158 L259.207626,158 L259.207626,91.25 L277.957626,91.25 L277.957626,158 L323.332626,158 L323.332626,173.375 L277.957626,173.375 L277.957626,315.875 C277.957626,323.125036 280.457601,328.562482 285.457626,332.1875 C290.457651,335.812518 296.082595,337.625 302.332626,337.625 C310.082665,337.625 316.770098,336.312513 322.395126,333.6875 C328.020154,331.062487 331.45762,329.375004 332.707626,328.625 L338.332626,343.625 Z M461.040253,174.875 C443.540165,175.375002 428.227818,180.562451 415.102753,190.4375 C401.977687,200.312549 392.790279,213.874914 387.540253,231.125 L387.540253,353 L368.790253,353 L368.790253,158 L386.790253,158 L386.790253,206 C393.540286,192.249931 402.477697,181.062543 413.602753,172.4375 C424.727808,163.812457 436.665189,158.875006 449.415253,157.625 C451.915265,157.374999 454.165243,157.25 456.165253,157.25 L461.040253,157.25 L461.040253,174.875 Z M539.497879,356.75 C530.497834,356.75 522.122918,355.187516 514.372879,352.0625 C506.62284,348.937484 499.810408,344.687527 493.935379,339.3125 C488.06035,333.937473 483.497895,327.562537 480.247879,320.1875 C476.997863,312.812463 475.372879,304.875043 475.372879,296.375 C475.372879,287.874957 477.372859,280.125035 481.372879,273.125 C485.372899,266.124965 490.935343,260.062526 498.060379,254.9375 C505.185415,249.812474 513.747829,245.812514 523.747879,242.9375 C533.747929,240.062486 544.747819,238.625 556.747879,238.625 C567.247932,238.625 577.810326,239.562491 588.435379,241.4375 C599.060432,243.312509 608.622837,245.874984 617.122879,249.125 L617.122879,230 C617.122879,211.499908 611.872932,196.812554 601.372879,185.9375 C590.872827,175.062446 576.622969,169.625 558.622879,169.625 C549.122832,169.625 539.060432,171.62498 528.435379,175.625 C517.810326,179.62502 506.997934,185.374962 495.997879,192.875 L488.872879,180.125 C513.873004,163.124915 537.622767,154.625 560.122879,154.625 C583.622997,154.625 602.122812,161.437432 615.622879,175.0625 C629.122947,188.687568 635.872879,207.49988 635.872879,231.5 L635.872879,326.75 C635.872879,333.000031 638.622852,336.125 644.122879,336.125 L644.122879,353 C642.872873,353.250001 641.560386,353.437499 640.185379,353.5625 C638.810372,353.687501 637.622884,353.75 636.622879,353.75 C631.622854,353.75 627.622894,352.062517 624.622879,348.6875 C621.622864,345.312483 619.872882,341.250024 619.372879,336.5 L619.372879,320.375 C610.372834,332.125059 598.872949,341.124969 584.872879,347.375 C570.872809,353.625031 555.74796,356.75 539.497879,356.75 L539.497879,356.75 Z M543.247879,341.75 C557.747952,341.75 571.060318,339.000027 583.185379,333.5 C595.31044,327.999973 604.622847,320.750045 611.122879,311.75 C615.122899,306.499974 617.122879,301.500024 617.122879,296.75 L617.122879,262.25 C608.122834,258.749982 598.747928,256.125009 588.997879,254.375 C579.24783,252.624991 569.122932,251.75 558.622879,251.75 C548.87283,251.75 539.997919,252.812489 531.997879,254.9375 C523.997839,257.062511 517.122908,259.999981 511.372879,263.75 C505.62285,267.500019 501.185395,272.062473 498.060379,277.4375 C494.935363,282.812527 493.372879,288.749968 493.372879,295.25 C493.372879,301.750032 494.622867,307.874971 497.122879,313.625 C499.622892,319.375029 503.122857,324.312479 507.622879,328.4375 C512.122902,332.562521 517.435348,335.812488 523.560379,338.1875 C529.68541,340.562512 536.247844,341.75 543.247879,341.75 L543.247879,341.75 Z M775.830505,343.625 C774.8305,344.125002 773.143017,345.062493 770.768005,346.4375 C768.392993,347.812507 765.393023,349.124994 761.768005,350.375 C758.142987,351.625006 754.080528,352.749995 749.580505,353.75 C745.080483,354.750005 740.205532,355.25 734.955505,355.25 C729.705479,355.25 724.768028,354.500007 720.143005,353 C715.517982,351.499993 711.455523,349.250015 707.955505,346.25 C704.455488,343.249985 701.705515,339.625021 699.705505,335.375 C697.705495,331.124979 696.705505,326.125029 696.705505,320.375 L696.705505,173.375 L669.330505,173.375 L669.330505,158 L696.705505,158 L696.705505,91.25 L715.455505,91.25 L715.455505,158 L760.830505,158 L760.830505,173.375 L715.455505,173.375 L715.455505,315.875 C715.455505,323.125036 717.95548,328.562482 722.955505,332.1875 C727.95553,335.812518 733.580474,337.625 739.830505,337.625 C747.580544,337.625 754.267977,336.312513 759.893005,333.6875 C765.518033,331.062487 768.955499,329.375004 770.205505,328.625 L775.830505,343.625 Z M854.288132,356.75 C845.288087,356.75 836.91317,355.187516 829.163132,352.0625 C821.413093,348.937484 814.600661,344.687527 808.725632,339.3125 C802.850602,333.937473 798.288148,327.562537 795.038132,320.1875 C791.788115,312.812463 790.163132,304.875043 790.163132,296.375 C790.163132,287.874957 792.163112,280.125035 796.163132,273.125 C800.163152,266.124965 805.725596,260.062526 812.850632,254.9375 C819.975667,249.812474 828.538082,245.812514 838.538132,242.9375 C848.538182,240.062486 859.538072,238.625 871.538132,238.625 C882.038184,238.625 892.600579,239.562491 903.225632,241.4375 C913.850685,243.312509 923.413089,245.874984 931.913132,249.125 L931.913132,230 C931.913132,211.499908 926.663184,196.812554 916.163132,185.9375 C905.663079,175.062446 891.413222,169.625 873.413132,169.625 C863.913084,169.625 853.850685,171.62498 843.225632,175.625 C832.600579,179.62502 821.788187,185.374962 810.788132,192.875 L803.663132,180.125 C828.663257,163.124915 852.413019,154.625 874.913132,154.625 C898.413249,154.625 916.913064,161.437432 930.413132,175.0625 C943.913199,188.687568 950.663132,207.49988 950.663132,231.5 L950.663132,326.75 C950.663132,333.000031 953.413104,336.125 958.913132,336.125 L958.913132,353 C957.663125,353.250001 956.350639,353.437499 954.975632,353.5625 C953.600625,353.687501 952.413137,353.75 951.413132,353.75 C946.413107,353.75 942.413147,352.062517 939.413132,348.6875 C936.413117,345.312483 934.663134,341.250024 934.163132,336.5 L934.163132,320.375 C925.163087,332.125059 913.663202,341.124969 899.663132,347.375 C885.663062,353.625031 870.538213,356.75 854.288132,356.75 L854.288132,356.75 Z M858.038132,341.75 C872.538204,341.75 885.850571,339.000027 897.975632,333.5 C910.100692,327.999973 919.413099,320.750045 925.913132,311.75 C929.913152,306.499974 931.913132,301.500024 931.913132,296.75 L931.913132,262.25 C922.913087,258.749982 913.53818,256.125009 903.788132,254.375 C894.038083,252.624991 883.913184,251.75 873.413132,251.75 C863.663083,251.75 854.788172,252.812489 846.788132,254.9375 C838.788092,257.062511 831.91316,259.999981 826.163132,263.75 C820.413103,267.500019 815.975647,272.062473 812.850632,277.4375 C809.725616,282.812527 808.163132,288.749968 808.163132,295.25 C808.163132,301.750032 809.413119,307.874971 811.913132,313.625 C814.413144,319.375029 817.913109,324.312479 822.413132,328.4375 C826.913154,332.562521 832.225601,335.812488 838.350632,338.1875 C844.475662,340.562512 851.038097,341.75 858.038132,341.75 L858.038132,341.75 Z M1000.99576,353 L1000.99576,321.125 L1017.49576,321.125 L1017.49576,353 L1000.99576,353 Z M1055.01641,254.75 C1055.01641,240.999931 1057.39139,228.000061 1062.14141,215.75 C1066.89144,203.499939 1073.51637,192.875045 1082.01641,183.875 C1090.51646,174.874955 1100.64136,167.750026 1112.39141,162.5 C1124.14147,157.249974 1137.01634,154.625 1151.01641,154.625 C1168.7665,154.625 1184.39135,158.62496 1197.89141,166.625 C1211.39148,174.62504 1221.51638,185.749929 1228.26641,200 L1209.89141,206 C1204.14139,195.249946 1195.95397,186.812531 1185.32891,180.6875 C1174.70386,174.562469 1163.01648,171.5 1150.26641,171.5 C1139.51636,171.5 1129.51646,173.624979 1120.26641,177.875 C1111.01637,182.125021 1102.95395,187.999963 1096.07891,195.5 C1089.20388,203.000037 1083.76643,211.812449 1079.76641,221.9375 C1075.76639,232.062551 1073.76641,242.999941 1073.76641,254.75 C1073.76641,266.500059 1075.82889,277.562448 1079.95391,287.9375 C1084.07893,298.312552 1089.57888,307.312462 1096.45391,314.9375 C1103.32895,322.562538 1111.45387,328.624977 1120.82891,333.125 C1130.20396,337.625023 1140.14136,339.875 1150.64141,339.875 C1157.39145,339.875 1164.07888,338.87501 1170.70391,336.875 C1177.32895,334.87499 1183.45389,332.250016 1189.07891,329 C1194.70394,325.749984 1199.57889,321.937522 1203.70391,317.5625 C1207.82893,313.187478 1210.64141,308.625024 1212.14141,303.875 L1230.51641,309.125 C1228.0164,315.875034 1224.20394,322.187471 1219.07891,328.0625 C1213.95389,333.937529 1207.89145,338.999979 1200.89141,343.25 C1193.89138,347.500021 1186.14146,350.812488 1177.64141,353.1875 C1169.14137,355.562512 1160.39146,356.75 1151.39141,356.75 C1137.64135,356.75 1124.89147,354.062527 1113.14141,348.6875 C1101.39136,343.312473 1091.20396,335.937547 1082.57891,326.5625 C1073.95387,317.187453 1067.20394,306.375061 1062.32891,294.125 C1057.45389,281.874939 1055.01641,268.75007 1055.01641,254.75 L1055.01641,254.75 Z M1429.28707,353 L1410.53707,353 L1410.53707,244.25 C1410.53707,195.999759 1394.41223,171.875 1362.16207,171.875 C1354.16203,171.875 1346.34961,173.374985 1338.72457,176.375 C1331.09953,179.375015 1323.9746,183.624973 1317.34957,189.125 C1310.72454,194.625028 1304.91209,201.062463 1299.91207,208.4375 C1294.91204,215.812537 1291.16208,223.749957 1288.66207,232.25 L1288.66207,353 L1269.91207,353 L1269.91207,79.25 L1288.66207,79.25 L1288.66207,204.5 C1296.66211,189.249924 1307.7245,177.125045 1321.84957,168.125 C1335.97464,159.124955 1351.16199,154.625 1367.41207,154.625 C1378.16212,154.625 1387.41203,156.62498 1395.16207,160.625 C1402.91211,164.62502 1409.34954,170.374963 1414.47457,177.875 C1419.5996,185.375037 1423.34956,194.437447 1425.72457,205.0625 C1428.09958,215.687553 1429.28707,227.624934 1429.28707,240.875 L1429.28707,353 Z M1530.93273,356.75 C1521.93268,356.75 1513.55776,355.187516 1505.80773,352.0625 C1498.05769,348.937484 1491.24526,344.687527 1485.37023,339.3125 C1479.4952,333.937473 1474.93274,327.562537 1471.68273,320.1875 C1468.43271,312.812463 1466.80773,304.875043 1466.80773,296.375 C1466.80773,287.874957 1468.80771,280.125035 1472.80773,273.125 C1476.80775,266.124965 1482.37019,260.062526 1489.49523,254.9375 C1496.62026,249.812474 1505.18268,245.812514 1515.18273,242.9375 C1525.18278,240.062486 1536.18267,238.625 1548.18273,238.625 C1558.68278,238.625 1569.24517,239.562491 1579.87023,241.4375 C1590.49528,243.312509 1600.05768,245.874984 1608.55773,249.125 L1608.55773,230 C1608.55773,211.499908 1603.30778,196.812554 1592.80773,185.9375 C1582.30767,175.062446 1568.05782,169.625 1550.05773,169.625 C1540.55768,169.625 1530.49528,171.62498 1519.87023,175.625 C1509.24517,179.62502 1498.43278,185.374962 1487.43273,192.875 L1480.30773,180.125 C1505.30785,163.124915 1529.05761,154.625 1551.55773,154.625 C1575.05784,154.625 1593.55766,161.437432 1607.05773,175.0625 C1620.55779,188.687568 1627.30773,207.49988 1627.30773,231.5 L1627.30773,326.75 C1627.30773,333.000031 1630.0577,336.125 1635.55773,336.125 L1635.55773,353 C1634.30772,353.250001 1632.99523,353.437499 1631.62023,353.5625 C1630.24522,353.687501 1629.05773,353.75 1628.05773,353.75 C1623.0577,353.75 1619.05774,352.062517 1616.05773,348.6875 C1613.05771,345.312483 1611.30773,341.250024 1610.80773,336.5 L1610.80773,320.375 C1601.80768,332.125059 1590.3078,341.124969 1576.30773,347.375 C1562.30766,353.625031 1547.18281,356.75 1530.93273,356.75 L1530.93273,356.75 Z M1534.68273,341.75 C1549.1828,341.75 1562.49517,339.000027 1574.62023,333.5 C1586.74529,327.999973 1596.05769,320.750045 1602.55773,311.75 C1606.55775,306.499974 1608.55773,301.500024 1608.55773,296.75 L1608.55773,262.25 C1599.55768,258.749982 1590.18277,256.125009 1580.43273,254.375 C1570.68268,252.624991 1560.55778,251.75 1550.05773,251.75 C1540.30768,251.75 1531.43277,252.812489 1523.43273,254.9375 C1515.43269,257.062511 1508.55775,259.999981 1502.80773,263.75 C1497.0577,267.500019 1492.62024,272.062473 1489.49523,277.4375 C1486.37021,282.812527 1484.80773,288.749968 1484.80773,295.25 C1484.80773,301.750032 1486.05771,307.874971 1488.55773,313.625 C1491.05774,319.375029 1494.5577,324.312479 1499.05773,328.4375 C1503.55775,332.562521 1508.8702,335.812488 1514.99523,338.1875 C1521.12026,340.562512 1527.68269,341.75 1534.68273,341.75 L1534.68273,341.75 Z M1766.82838,343.625 C1765.82838,344.125002 1764.14089,345.062493 1761.76588,346.4375 C1759.39087,347.812507 1756.3909,349.124994 1752.76588,350.375 C1749.14086,351.625006 1745.0784,352.749995 1740.57838,353.75 C1736.07836,354.750005 1731.20341,355.25 1725.95338,355.25 C1720.70336,355.25 1715.7659,354.500007 1711.14088,353 C1706.51586,351.499993 1702.4534,349.250015 1698.95338,346.25 C1695.45336,343.249985 1692.70339,339.625021 1690.70338,335.375 C1688.70337,331.124979 1687.70338,326.125029 1687.70338,320.375 L1687.70338,173.375 L1660.32838,173.375 L1660.32838,158 L1687.70338,158 L1687.70338,91.25 L1706.45338,91.25 L1706.45338,158 L1751.82838,158 L1751.82838,173.375 L1706.45338,173.375 L1706.45338,315.875 C1706.45338,323.125036 1708.95336,328.562482 1713.95338,332.1875 C1718.95341,335.812518 1724.57835,337.625 1730.82838,337.625 C1738.57842,337.625 1745.26585,336.312513 1750.89088,333.6875 C1756.51591,331.062487 1759.95338,329.375004 1761.20338,328.625 L1766.82838,343.625 Z" id="Strata.chat"></path>
                </g>
            </g>
        </g>
    </g>
</svg>