<?xml version="1.0" encoding="UTF-8"?>
<svg width="3916px" height="1023px" viewBox="0 0 3916 1023" version="1.1" xmlns="http://www.w3.org/2000/svg" xmlns:xlink="http://www.w3.org/1999/xlink">
    <!-- Generator: Sketch 47.1 (45422) - http://www.bohemiancoding.com/sketch -->
    <title>Logo - horizontal</title>
    <desc>Created with Sketch.</desc>
    <defs>
        <radialGradient cx="69.0965772%" cy="-3.73631402%" fx="69.0965772%" fy="-3.73631402%" r="100%" gradientTransform="translate(0.690966,-0.037363),scale(0.604293,1.000000),translate(-0.690966,0.037363)" id="radialGradient-1">
            <stop stop-color="#59748B" offset="0%"></stop>
            <stop stop-color="#2D4053" offset="100%"></stop>
        </radialGradient>
        <radialGradient cx="65.9475029%" cy="-28.3967947%" fx="65.9475029%" fy="-28.3967947%" r="100%" gradientTransform="translate(0.659475,-0.283968),scale(0.604293,1.000000),translate(-0.659475,0.283968)" id="radialGradient-2">
            <stop stop-color="#34DBC4" offset="0%"></stop>
            <stop stop-color="#18B491" offset="100%"></stop>
        </radialGradient>
    </defs>
    <g id="Page-1" stroke="none" stroke-width="1" fill="none" fill-rule="evenodd">
        <g id="Logo---horizontal" fill-rule="nonzero">
            <g id="strata">
                <path d="M183.624408,634.416604 L421.543664,450.798323 C429.767045,444.451787 444.699687,440.694696 454.968657,442.418715 L780.082739,497.00088 L761.102712,514.094295 L451.657276,462.142679 C446.895344,461.343216 437.588545,463.679017 433.763094,466.631374 L208.381442,640.573544 L183.624408,634.416604 Z M143.943099,665.041338 L26.4977879,755.681778 C-14.5221879,787.339651 -7.10182797,823.564053 43.1092119,836.562238 L439.254512,939.112792 C449.319705,941.718379 459.556946,951.94152 462.142561,961.952648 L475.242376,1012.67324 C477.830939,1022.69578 486.038883,1025.03193 493.581917,1017.91666 L937.406029,599.261999 C975.127345,563.679875 964.187514,527.90953 913.021336,519.319435 L832.559923,505.811075 L813.579896,522.904489 L909.709955,539.043399 C927.86595,542.09154 937.433347,548.507145 939.417974,555.008208 C941.397552,561.492732 937.04917,572.104656 923.682442,584.713351 L490.836214,993.01269 L481.507125,956.951283 C477.100081,939.887845 461.358137,924.175505 444.266712,919.751029 L48.1214119,817.200476 C30.3433573,812.598252 21.4944855,805.486769 20.1835846,799.098859 C18.8742755,792.718706 24.2009681,782.717996 38.7172181,771.51483 L168.700133,671.198278 L143.943099,665.041338 Z" id="Combined-Shape" fill="url(#radialGradient-1)"></path>
                <path d="M205.161079,409.795307 L421.543664,242.798323 C429.767045,236.451787 444.699687,232.694696 454.968657,234.418715 L763.039187,286.139503 L744.05916,303.232918 L451.657276,254.142679 C446.895344,253.343216 437.588545,255.679017 433.763094,258.631374 L229.918113,415.952247 L205.161079,409.795307 Z M169.425676,437.37472 L26.4977879,547.681778 C-14.5221879,579.339651 -7.10182797,615.564053 43.1092119,628.562238 L439.254512,731.112792 C449.319705,733.718379 459.556946,743.94152 462.142561,753.952648 L475.242376,804.673238 C477.830939,814.69578 486.038883,817.031928 493.581917,809.916663 L937.406029,391.261999 C975.127345,355.679875 964.187514,319.90953 913.021336,311.319435 L809.616247,293.959149 L790.63622,311.052563 L909.709955,331.043399 C927.86595,334.09154 937.433347,340.507145 939.417974,347.008208 C941.397552,353.492732 937.04917,364.104656 923.682442,376.713351 L490.83008,785.018476 L481.507125,748.951283 C477.100081,731.887845 461.358137,716.175505 444.266712,711.751029 L48.1214119,609.200476 C30.3433573,604.598252 21.4944855,597.486769 20.1835846,591.098859 C18.8742755,584.718706 24.2009681,574.717996 38.7172181,563.51483 L194.182711,443.53166 L169.425676,437.37472 Z" id="Combined-Shape" fill="url(#radialGradient-1)"></path>
                <path d="M454.968657,0.418714617 L913.021336,77.3194353 C964.187514,85.90953 975.127345,121.679875 937.406029,157.261999 L493.581917,575.916663 C486.038883,583.031928 477.830939,580.69578 475.242376,570.673238 L462.142561,519.952648 C459.556946,509.94152 449.319705,499.718379 439.254512,497.112792 L43.1092119,394.562238 C-7.10182797,381.564053 -14.5221879,345.339651 26.4977879,313.681778 L421.543664,8.79832262 C429.767045,2.45178679 444.699687,-1.30530359 454.968657,0.418714617 Z" id="Shape-Copy-4" fill="url(#radialGradient-2)"></path>
            </g>
            <g id="strata.chat" transform="translate(1015.000000, 211.000000)" fill="#2D4053">
                <path d="M292.158194,85.60049 C263.624555,53.758603 223.305887,37.8378978 171.20098,37.8378978 C128.193756,37.8378978 96.8692518,46.0050132 77.226529,62.3394873 C57.5838063,78.6739614 47.7625923,100.694157 47.7625923,128.400735 C47.7625923,142.46079 50.2437411,154.142865 55.2061131,163.447312 C60.1684852,172.75176 67.9220752,180.712113 78.4671158,187.328609 C89.0121565,193.945105 102.348331,199.527689 118.476041,204.076531 C134.60375,208.625372 154.039415,213.380907 176.783621,218.343279 C200.354888,223.305651 221.754797,228.784855 240.983988,234.781054 C260.21318,240.777253 276.547409,248.324082 289.987167,257.421763 C303.426926,266.519445 313.765045,277.684615 321.001838,290.917607 C328.23863,304.1506 331.856972,320.484829 331.856972,339.920786 C331.856972,359.356744 328.031868,376.31126 320.381544,390.784846 C312.731221,405.258431 301.979576,417.354032 288.126287,427.07201 C274.272998,436.789988 257.732006,444.130054 238.502815,449.092426 C219.273623,454.054798 197.873714,456.535947 174.302447,456.535947 C105.6563,456.535947 47.5560656,434.619133 0,390.784846 L16.747922,365.352816 C35.3568173,384.788774 58.1006812,400.192573 84.9801966,411.564675 C111.859712,422.936777 142.047022,428.622743 175.543034,428.622743 C214.001417,428.622743 244.085346,421.592823 265.795724,407.532768 C287.506103,393.472713 298.361128,372.176186 298.361128,343.642547 C298.361128,329.168961 295.466454,316.866599 289.677021,306.735089 C283.887586,296.603579 275.306946,287.816178 263.934844,280.372619 C252.562742,272.929061 238.192756,266.519427 220.824452,261.143524 C203.456149,255.767621 183.193435,250.598561 160.035699,245.636189 C136.464432,240.673817 115.68481,235.401376 97.6962114,229.818707 C79.7076127,224.236038 64.6139575,217.206117 52.4147928,208.728731 C40.2156281,200.251345 31.0147014,190.016606 24.8117362,178.024207 C18.6087711,166.031809 15.5073351,150.938153 15.5073351,132.742789 C15.5073351,112.893301 19.3324396,95.3184961 26.9827632,80.0178494 C34.6330867,64.7172026 45.2813505,51.7945523 58.9278736,41.2495115 C72.5743966,30.7044708 88.9086264,22.7441183 107.931053,17.3682154 C126.953479,11.9923122 148.043244,9.30440109 171.20098,9.30440109 C199.734619,9.30440109 225.166394,13.5430303 247.497069,22.0204159 C269.827744,30.4978015 290.090459,43.4204524 308.285823,60.7887538 L292.158194,85.60049 Z M537.931056,437.306851 C536.276932,438.133912 533.48564,439.684631 529.557095,441.959052 C525.62855,444.233472 520.666253,446.404478 514.670053,448.472132 C508.673854,450.539787 501.954076,452.400649 494.510517,454.054773 C487.06696,455.708897 479.003227,456.535947 470.319075,456.535947 C461.634924,456.535947 453.467808,455.295372 445.817485,452.814186 C438.167162,450.333001 431.447384,446.611277 425.657949,441.648905 C419.868516,436.686533 415.319743,430.690423 412.011494,423.660396 C408.703246,416.63037 407.049147,408.359874 407.049147,398.84866 L407.049147,155.693645 L361.767729,155.693645 L361.767729,130.261615 L407.049147,130.261615 L407.049147,19.849389 L438.063818,19.849389 L438.063818,130.261615 L513.11932,130.261615 L513.11932,155.693645 L438.063818,155.693645 L438.063818,391.405139 C438.063818,403.397538 442.199066,412.391703 450.469686,418.387902 C458.740306,424.384102 468.044614,427.382157 478.382889,427.382157 C491.20235,427.382157 502.264139,425.211151 511.568586,420.869076 C520.873034,416.527001 526.559,413.735708 528.626655,412.495115 L537.931056,437.306851 Z M740.903674,158.174819 C711.956503,159.00188 686.628109,167.582521 664.917732,183.916995 C643.207354,200.251469 628.010317,222.68519 619.326167,251.218829 L619.326167,452.814186 L588.311496,452.814186 L588.311496,130.261615 L618.08558,130.261615 L618.08558,209.659171 C629.250916,186.914966 644.034428,168.409731 662.436558,154.142911 C680.838687,139.876092 700.584497,131.708976 721.674579,129.641322 C725.809888,129.227791 729.531612,129.021028 732.83986,129.021028 L740.903674,129.021028 L740.903674,158.174819 Z M870.681669,459.01712 C855.794553,459.01712 841.941472,456.432591 829.122011,451.263453 C816.302549,446.094315 805.033998,439.064394 795.31602,430.173477 C785.598042,421.28256 778.051214,410.737678 772.675311,398.538513 C767.299408,386.339348 764.611497,373.209937 764.611497,359.149882 C764.611497,345.089827 767.919695,332.270559 774.536191,320.691691 C781.152687,309.112823 790.353613,299.084847 802.139248,290.607461 C813.924882,282.130074 828.088106,275.513678 844.629346,270.758072 C861.170586,266.002466 879.365677,263.624698 899.215166,263.624698 C916.583469,263.624698 934.054891,265.175416 951.629958,268.276898 C969.205026,271.37838 985.022351,275.61701 999.082404,280.992913 L999.082404,249.357949 C999.082404,218.756656 990.398384,194.462072 973.030081,176.473474 C955.66178,158.484876 932.090865,149.490711 902.316633,149.490711 C886.602455,149.490711 869.958081,152.798909 852.383014,159.415405 C834.807946,166.031901 816.922998,175.542971 798.727634,187.948902 L786.942059,166.858926 C828.29516,138.738818 867.580017,124.678975 904.797806,124.678975 C943.669722,124.678975 974.270557,135.947526 996.60123,158.484965 C1018.93191,181.022405 1030.09707,212.140146 1030.09707,251.839123 L1030.09707,409.393648 C1030.09707,419.731923 1034.64585,424.900983 1043.74353,424.900983 L1043.74353,452.814186 C1041.67587,453.227717 1039.50487,453.53786 1037.23045,453.744626 C1034.95603,453.951393 1032.99179,454.054773 1031.33766,454.054773 C1023.06704,454.054773 1016.45064,451.263481 1011.48827,445.680812 C1006.5259,440.098143 1003.63123,433.378366 1002.80416,425.521276 L1002.80416,398.84866 C987.917048,418.284618 968.894907,433.171511 945.737171,443.509785 C922.579435,453.84806 897.561184,459.01712 870.681669,459.01712 L870.681669,459.01712 Z M876.884603,434.205384 C900.869402,434.205384 922.889596,429.65661 942.945851,420.558929 C963.002105,411.461248 978.405904,399.469028 989.15771,384.581912 C995.774206,375.897761 999.082404,367.627265 999.082404,359.770175 L999.082404,302.703182 C984.195288,296.913747 968.688108,292.571738 952.560399,289.677021 C936.432689,286.782303 919.684936,285.334967 902.316633,285.334967 C886.188923,285.334967 871.508793,287.092446 858.275801,290.607461 C845.042809,294.122475 833.670877,298.98139 824.159664,305.184356 C814.64845,311.387321 807.308386,318.934148 802.139248,327.825065 C796.970109,336.715982 794.38558,346.537196 794.38558,357.289002 C794.38558,368.040807 796.453205,378.172165 800.588514,387.683379 C804.723825,397.194592 810.513172,405.361706 817.95673,412.184968 C825.400288,419.00823 834.187689,424.384052 844.319199,428.312597 C854.45071,432.241142 865.305735,434.205384 876.884603,434.205384 L876.884603,434.205384 Z M1261.60319,437.306851 C1259.94906,438.133912 1257.15777,439.684631 1253.22923,441.959052 C1249.30068,444.233472 1244.33838,446.404478 1238.34218,448.472132 C1232.34599,450.539787 1225.62621,452.400649 1218.18265,454.054773 C1210.73909,455.708897 1202.67536,456.535947 1193.99121,456.535947 C1185.30706,456.535947 1177.13994,455.295372 1169.48962,452.814186 C1161.83929,450.333001 1155.11952,446.611277 1149.33008,441.648905 C1143.54065,436.686533 1138.99187,430.690423 1135.68363,423.660396 C1132.37538,416.63037 1130.72128,408.359874 1130.72128,398.84866 L1130.72128,155.693645 L1085.43986,155.693645 L1085.43986,130.261615 L1130.72128,130.261615 L1130.72128,19.849389 L1161.73595,19.849389 L1161.73595,130.261615 L1236.79145,130.261615 L1236.79145,155.693645 L1161.73595,155.693645 L1161.73595,391.405139 C1161.73595,403.397538 1165.8712,412.391703 1174.14182,418.387902 C1182.41244,424.384102 1191.71675,427.382157 1202.05502,427.382157 C1214.87448,427.382157 1225.93627,425.211151 1235.24072,420.869076 C1244.54517,416.527001 1250.23113,413.735708 1252.29879,412.495115 L1261.60319,437.306851 Z M1391.38118,459.01712 C1376.49407,459.01712 1362.64099,456.432591 1349.82153,451.263453 C1337.00206,446.094315 1325.73351,439.064394 1316.01554,430.173477 C1306.29756,421.28256 1298.75073,410.737678 1293.37483,398.538513 C1287.99892,386.339348 1285.31101,373.209937 1285.31101,359.149882 C1285.31101,345.089827 1288.61921,332.270559 1295.23571,320.691691 C1301.8522,309.112823 1311.05313,299.084847 1322.83876,290.607461 C1334.6244,282.130074 1348.78762,275.513678 1365.32886,270.758072 C1381.8701,266.002466 1400.06519,263.624698 1419.91468,263.624698 C1437.28298,263.624698 1454.75441,265.175416 1472.32947,268.276898 C1489.90454,271.37838 1505.72186,275.61701 1519.78192,280.992913 L1519.78192,249.357949 C1519.78192,218.756656 1511.0979,194.462072 1493.7296,176.473474 C1476.36129,158.484876 1452.79038,149.490711 1423.01615,149.490711 C1407.30197,149.490711 1390.6576,152.798909 1373.08253,159.415405 C1355.50746,166.031901 1337.62251,175.542971 1319.42715,187.948902 L1307.64157,166.858926 C1348.99467,138.738818 1388.27953,124.678975 1425.49732,124.678975 C1464.36924,124.678975 1494.97007,135.947526 1517.30075,158.484965 C1539.63142,181.022405 1550.79659,212.140146 1550.79659,251.839123 L1550.79659,409.393648 C1550.79659,419.731923 1555.34536,424.900983 1564.44304,424.900983 L1564.44304,452.814186 C1562.37539,453.227717 1560.20438,453.53786 1557.92996,453.744626 C1555.65554,453.951393 1553.6913,454.054773 1552.03718,454.054773 C1543.76656,454.054773 1537.15016,451.263481 1532.18779,445.680812 C1527.22542,440.098143 1524.33074,433.378366 1523.50368,425.521276 L1523.50368,398.84866 C1508.61656,418.284618 1489.59442,433.171511 1466.43669,443.509785 C1443.27895,453.84806 1418.2607,459.01712 1391.38118,459.01712 L1391.38118,459.01712 Z M1397.58412,434.205384 C1421.56892,434.205384 1443.58911,429.65661 1463.64537,420.558929 C1483.70162,411.461248 1499.10542,399.469028 1509.85722,384.581912 C1516.47372,375.897761 1519.78192,367.627265 1519.78192,359.770175 L1519.78192,302.703182 C1504.8948,296.913747 1489.38762,292.571738 1473.25991,289.677021 C1457.1322,286.782303 1440.38445,285.334967 1423.01615,285.334967 C1406.88844,285.334967 1392.20831,287.092446 1378.97532,290.607461 C1365.74232,294.122475 1354.37039,298.98139 1344.85918,305.184356 C1335.34797,311.387321 1328.0079,318.934148 1322.83876,327.825065 C1317.66962,336.715982 1315.0851,346.537196 1315.0851,357.289002 C1315.0851,368.040807 1317.15272,378.172165 1321.28803,387.683379 C1325.42334,397.194592 1331.21269,405.361706 1338.65624,412.184968 C1346.0998,419.00823 1354.8872,424.384052 1365.01871,428.312597 C1375.15022,432.241142 1386.00525,434.205384 1397.58412,434.205384 L1397.58412,434.205384 Z M1634.05258,452.814186 L1634.05258,400.089247 L1661.34549,400.089247 L1661.34549,452.814186 L1634.05258,452.814186 Z M1723.40899,290.297314 C1723.40899,267.553108 1727.33748,246.049819 1735.19456,225.7868 C1743.05166,205.523781 1754.01007,187.948976 1768.07012,173.06186 C1782.13018,158.174744 1798.87794,146.389287 1818.31388,137.705136 C1837.74984,129.020985 1859.04637,124.678975 1882.2041,124.678975 C1911.56481,124.678975 1937.41012,131.295371 1959.74078,144.528364 C1982.07146,157.761356 1998.81921,176.16321 2009.98454,199.734477 L1979.59017,209.659171 C1970.07897,191.877338 1956.53603,177.920877 1938.96095,167.789366 C1921.38589,157.657856 1902.05361,152.592178 1880.96352,152.592178 C1863.18169,152.592178 1846.6407,156.107139 1831.34004,163.137166 C1816.03941,170.167192 1802.70323,179.885027 1791.33112,192.290956 C1779.95902,204.696885 1770.96485,219.273635 1764.34835,236.021641 C1757.73186,252.769647 1754.42366,270.861356 1754.42366,290.297314 C1754.42366,309.733272 1757.83524,328.031743 1764.6585,345.19328 C1771.48176,362.354817 1780.57932,377.24171 1791.95141,389.854406 C1803.32352,402.467101 1816.76308,412.495077 1832.27048,419.938636 C1847.7779,427.382195 1864.21551,431.103917 1881.58381,431.103917 C1892.74916,431.103917 1903.81094,429.449818 1914.76951,426.14157 C1925.72809,422.833322 1935.85945,418.491311 1945.16388,413.115408 C1954.46833,407.739506 1962.53206,401.433252 1969.35533,394.196459 C1976.17859,386.959667 1980.83075,379.41284 1983.31193,371.55575 L2013.7063,380.239858 C2009.571,391.405195 2003.26475,401.846697 1994.78736,411.564675 C1986.30998,421.282653 1976.282,429.656531 1964.70312,436.686558 C1953.12427,443.716584 1940.305,449.195788 1926.24493,453.124333 C1912.18488,457.052878 1897.71152,459.01712 1882.8244,459.01712 C1860.0802,459.01712 1838.99043,454.571729 1819.55447,445.680812 C1800.11853,436.789895 1783.26739,424.590914 1769.00056,409.083501 C1754.73374,393.576088 1743.56858,375.69114 1735.50471,355.428122 C1727.44086,335.165103 1723.40899,313.45505 1723.40899,290.297314 L1723.40899,290.297314 Z M2342.49598,452.814186 L2311.48131,452.814186 L2311.48131,272.929099 C2311.48131,193.117615 2284.80896,153.212471 2231.46346,153.212471 C2218.23047,153.212471 2205.30782,155.69362 2192.69513,160.655992 C2180.08243,165.618364 2168.29697,172.648287 2157.3384,181.745968 C2146.37984,190.843651 2136.76537,201.491913 2128.49476,213.691078 C2120.22413,225.890243 2114.02126,239.019655 2109.88596,253.07971 L2109.88596,452.814186 L2078.87129,452.814186 L2078.87129,0 L2109.88596,0 L2109.88596,207.177998 C2123.11895,181.952607 2141.41742,161.896653 2164.78192,147.009537 C2188.14642,132.122421 2213.26806,124.678975 2240.14757,124.678975 C2257.9294,124.678975 2273.22982,127.987173 2286.04928,134.603669 C2298.86875,141.220165 2309.517,150.731236 2317.99439,163.137166 C2326.47179,175.543095 2332.67465,190.53337 2336.6032,208.108438 C2340.53174,225.683505 2342.49598,245.429315 2342.49598,267.346458 L2342.49598,452.814186 Z M2510.62967,459.01712 C2495.74255,459.01712 2481.88946,456.432591 2469.07001,451.263453 C2456.25055,446.094315 2444.982,439.064394 2435.26402,430.173477 C2425.54604,421.28256 2417.9992,410.737678 2412.62331,398.538513 C2407.2474,386.339348 2404.5595,373.209937 2404.5595,359.149882 C2404.5595,345.089827 2407.8677,332.270559 2414.48419,320.691691 C2421.10069,309.112823 2430.30161,299.084847 2442.08725,290.607461 C2453.87287,282.130074 2468.03611,275.513678 2484.57735,270.758072 C2501.11859,266.002466 2519.31368,263.624698 2539.16317,263.624698 C2556.53146,263.624698 2574.00288,265.175416 2591.57796,268.276898 C2609.15302,271.37838 2624.97034,275.61701 2639.03041,280.992913 L2639.03041,249.357949 C2639.03041,218.756656 2630.34638,194.462072 2612.97808,176.473474 C2595.60977,158.484876 2572.03887,149.490711 2542.26463,149.490711 C2526.55045,149.490711 2509.90608,152.798909 2492.33101,159.415405 C2474.75594,166.031901 2456.87099,175.542971 2438.67564,187.948902 L2426.89006,166.858926 C2468.24315,138.738818 2507.528,124.678975 2544.74581,124.678975 C2583.61771,124.678975 2614.21855,135.947526 2636.54923,158.484965 C2658.87989,181.022405 2670.04508,212.140146 2670.04508,251.839123 L2670.04508,409.393648 C2670.04508,419.731923 2674.59384,424.900983 2683.69153,424.900983 L2683.69153,452.814186 C2681.62387,453.227717 2679.45286,453.53786 2677.17845,453.744626 C2674.90402,453.951393 2672.93978,454.054773 2671.28566,454.054773 C2663.01503,454.054773 2656.39864,451.263481 2651.43627,445.680812 C2646.47389,440.098143 2643.57922,433.378366 2642.75217,425.521276 L2642.75217,398.84866 C2627.86504,418.284618 2608.84291,433.171511 2585.68517,443.509785 C2562.52744,453.84806 2537.50918,459.01712 2510.62967,459.01712 L2510.62967,459.01712 Z M2516.8326,434.205384 C2540.8174,434.205384 2562.8376,429.65661 2582.89385,420.558929 C2602.9501,411.461248 2618.35389,399.469028 2629.10571,384.581912 C2635.72221,375.897761 2639.03041,367.627265 2639.03041,359.770175 L2639.03041,302.703182 C2624.14328,296.913747 2608.63609,292.571738 2592.5084,289.677021 C2576.38069,286.782303 2559.63293,285.334967 2542.26463,285.334967 C2526.13692,285.334967 2511.45679,287.092446 2498.2238,290.607461 C2484.99081,294.122475 2473.61886,298.98139 2464.10766,305.184356 C2454.59645,311.387321 2447.25638,318.934148 2442.08725,327.825065 C2436.9181,336.715982 2434.33358,346.537196 2434.33358,357.289002 C2434.33358,368.040807 2436.40119,378.172165 2440.53652,387.683379 C2444.67182,397.194592 2450.46116,405.361706 2457.90473,412.184968 C2465.34828,419.00823 2474.13569,424.384052 2484.2672,428.312597 C2494.39871,432.241142 2505.25373,434.205384 2516.8326,434.205384 L2516.8326,434.205384 Z M2900.82838,437.306851 C2899.17426,438.133912 2896.38296,439.684631 2892.45442,441.959052 C2888.52588,444.233472 2883.56358,446.404478 2877.56738,448.472132 C2871.57117,450.539787 2864.8514,452.400649 2857.40784,454.054773 C2849.96429,455.708897 2841.90056,456.535947 2833.2164,456.535947 C2824.53226,456.535947 2816.36513,455.295372 2808.71481,452.814186 C2801.06449,450.333001 2794.34471,446.611277 2788.55527,441.648905 C2782.76584,436.686533 2778.21707,430.690423 2774.90882,423.660396 C2771.60057,416.63037 2769.94647,408.359874 2769.94647,398.84866 L2769.94647,155.693645 L2724.66505,155.693645 L2724.66505,130.261615 L2769.94647,130.261615 L2769.94647,19.849389 L2800.96114,19.849389 L2800.96114,130.261615 L2876.01664,130.261615 L2876.01664,155.693645 L2800.96114,155.693645 L2800.96114,391.405139 C2800.96114,403.397538 2805.0964,412.391703 2813.36701,418.387902 C2821.63764,424.384102 2830.94194,427.382157 2841.28021,427.382157 C2854.09968,427.382157 2865.16146,425.211151 2874.46591,420.869076 C2883.77036,416.527001 2889.45633,413.735708 2891.52398,412.495115 L2900.82838,437.306851 Z" id="Strata.chat"></path>
            </g>
        </g>
    </g>
</svg>