<?xml version="1.0" encoding="UTF-8"?>
<svg width="5768px" height="1023px" viewBox="0 0 5768 1023" version="1.1" xmlns="http://www.w3.org/2000/svg" xmlns:xlink="http://www.w3.org/1999/xlink">
    <!-- Generator: Sketch 47.1 (45422) - http://www.bohemiancoding.com/sketch -->
    <title>Untitled 2</title>
    <desc>Created with Sketch.</desc>
    <defs>
        <radialGradient cx="69.0965772%" cy="-3.73631402%" fx="69.0965772%" fy="-3.73631402%" r="100%" gradientTransform="translate(0.690966,-0.037363),scale(0.604293,1.000000),translate(-0.690966,0.037363)" id="radialGradient-1">
            <stop stop-color="#59748B" offset="0%"></stop>
            <stop stop-color="#2D4053" offset="100%"></stop>
        </radialGradient>
        <radialGradient cx="65.9475029%" cy="-28.3967947%" fx="65.9475029%" fy="-28.3967947%" r="100%" gradientTransform="translate(0.659475,-0.283968),scale(0.604293,1.000000),translate(-0.659475,0.283968)" id="radialGradient-2">
            <stop stop-color="#34DBC4" offset="0%"></stop>
            <stop stop-color="#18B491" offset="100%"></stop>
        </radialGradient>
    </defs>
    <g id="Page-1" stroke="none" stroke-width="1" fill="none" fill-rule="evenodd">
        <g id="Logo---horizontal" fill-rule="nonzero">
            <g id="strata">
                <path d="M183.624408,634.416604 L421.543664,450.798323 C429.767045,444.451787 444.699687,440.694696 454.968657,442.418715 L780.082739,497.00088 L761.102712,514.094295 L451.657276,462.142679 C446.895344,461.343216 437.588545,463.679017 433.763094,466.631374 L208.381442,640.573544 L183.624408,634.416604 Z M143.943099,665.041338 L26.4977879,755.681778 C-14.5221879,787.339651 -7.10182797,823.564053 43.1092119,836.562238 L439.254512,939.112792 C449.319705,941.718379 459.556946,951.94152 462.142561,961.952648 L475.242376,1012.67324 C477.830939,1022.69578 486.038883,1025.03193 493.581917,1017.91666 L937.406029,599.261999 C975.127345,563.679875 964.187514,527.90953 913.021336,519.319435 L832.559923,505.811075 L813.579896,522.904489 L909.709955,539.043399 C927.86595,542.09154 937.433347,548.507145 939.417974,555.008208 C941.397552,561.492732 937.04917,572.104656 923.682442,584.713351 L490.836214,993.01269 L481.507125,956.951283 C477.100081,939.887845 461.358137,924.175505 444.266712,919.751029 L48.1214119,817.200476 C30.3433573,812.598252 21.4944855,805.486769 20.1835846,799.098859 C18.8742755,792.718706 24.2009681,782.717996 38.7172181,771.51483 L168.700133,671.198278 L143.943099,665.041338 Z" id="Combined-Shape" fill="url(#radialGradient-1)"></path>
                <path d="M205.161079,409.795307 L421.543664,242.798323 C429.767045,236.451787 444.699687,232.694696 454.968657,234.418715 L763.039187,286.139503 L744.05916,303.232918 L451.657276,254.142679 C446.895344,253.343216 437.588545,255.679017 433.763094,258.631374 L229.918113,415.952247 L205.161079,409.795307 Z M169.425676,437.37472 L26.4977879,547.681778 C-14.5221879,579.339651 -7.10182797,615.564053 43.1092119,628.562238 L439.254512,731.112792 C449.319705,733.718379 459.556946,743.94152 462.142561,753.952648 L475.242376,804.673238 C477.830939,814.69578 486.038883,817.031928 493.581917,809.916663 L937.406029,391.261999 C975.127345,355.679875 964.187514,319.90953 913.021336,311.319435 L809.616247,293.959149 L790.63622,311.052563 L909.709955,331.043399 C927.86595,334.09154 937.433347,340.507145 939.417974,347.008208 C941.397552,353.492732 937.04917,364.104656 923.682442,376.713351 L490.83008,785.018476 L481.507125,748.951283 C477.100081,731.887845 461.358137,716.175505 444.266712,711.751029 L48.1214119,609.200476 C30.3433573,604.598252 21.4944855,597.486769 20.1835846,591.098859 C18.8742755,584.718706 24.2009681,574.717996 38.7172181,563.51483 L194.182711,443.53166 L169.425676,437.37472 Z" id="Combined-Shape" fill="url(#radialGradient-1)"></path>
                <path d="M454.968657,0.418714617 L913.021336,77.3194353 C964.187514,85.90953 975.127345,121.679875 937.406029,157.261999 L493.581917,575.916663 C486.038883,583.031928 477.830939,580.69578 475.242376,570.673238 L462.142561,519.952648 C459.556946,509.94152 449.319705,499.718379 439.254512,497.112792 L43.1092119,394.562238 C-7.10182797,381.564053 -14.5221879,345.339651 26.4977879,313.681778 L421.543664,8.79832262 C429.767045,2.45178679 444.699687,-1.30530359 454.968657,0.418714617 Z" id="Shape-Copy-4" fill="url(#radialGradient-2)"></path>
            </g>
            <g id="strata.chat" transform="translate(1055.000000, 8.000000)" fill="#2D4053">
                <path d="M474.654564,165.254082 C428.297411,103.78245 362.793722,73.047094 278.141528,73.047094 C208.269877,73.047094 157.378548,88.8139333 125.466015,120.348081 C93.5534823,151.882229 77.5974552,194.392818 77.5974552,247.881122 C77.5974552,275.024442 81.6284515,297.577007 89.6905651,315.539496 C97.7526787,333.501986 110.349542,348.869664 127.481534,361.64299 C144.613525,374.416316 166.28013,385.193648 192.481999,393.97531 C218.683869,402.756973 250.260006,411.937663 287.21136,421.517657 C325.506399,431.097652 360.273743,441.675405 391.514433,453.251231 C422.755123,464.827057 449.292515,479.396416 471.127407,496.959738 C492.962299,514.52306 509.758115,536.077726 521.515365,561.624379 C533.272614,587.171031 539.15115,618.704706 539.15115,656.226353 C539.15115,693.747999 532.936697,726.479155 520.507605,754.420807 C508.078514,782.362459 490.610863,805.713346 468.104129,824.474168 C445.597395,843.23499 418.724086,857.405187 387.483396,866.985182 C356.242707,876.565176 321.475362,881.355102 283.180324,881.355102 C171.654419,881.355102 77.2619219,839.044095 0,754.420807 L27.2094973,705.32358 C57.4424233,742.845227 94.3932227,772.582681 138.063005,794.536834 C181.732786,816.490987 230.776575,827.467901 285.195842,827.467901 C347.677221,827.467901 396.553052,813.896447 431.824799,786.753128 C467.096547,759.609808 484.732155,718.496281 484.732155,663.411313 C484.732155,635.469661 480.029325,611.719616 470.623527,592.160459 C461.217727,572.601302 447.277198,555.636985 428.801522,541.266992 C410.325846,526.896998 386.979659,514.523025 358.76226,504.144698 C330.544862,493.766371 297.62506,483.787359 260.001863,474.207365 C221.706824,464.62737 187.947229,454.448779 158.722067,443.671284 C129.496906,432.89379 104.975012,419.322336 85.1556489,402.956511 C65.3362863,386.590685 50.3880084,366.832243 40.3103663,343.68059 C30.2327242,320.528937 25.193979,291.390223 25.193979,256.263576 C25.193979,217.943597 31.4084317,184.014958 43.8375234,154.476641 C56.2666151,124.938325 73.5663079,99.9907965 95.7371201,79.6333074 C117.907932,59.2758187 144.445325,43.908141 175.350094,33.5298137 C206.254862,23.1514859 240.518331,17.9624002 278.141528,17.9624002 C324.49868,17.9624002 365.816392,26.1451896 402.095904,42.5110137 C438.375417,58.8768379 471.295219,83.8243681 500.856302,117.354348 L474.654564,165.254082 Z M873.949236,844.232808 C871.261865,845.829472 866.726994,848.823177 860.344487,853.214008 C853.96198,857.604839 845.899988,861.796025 836.158268,865.787688 C826.416547,869.779352 815.499267,873.371797 803.406095,876.565128 C791.312926,879.75846 778.212189,881.355102 764.103488,881.355102 C749.99479,881.355102 736.726092,878.960137 724.297001,874.170142 C711.86791,869.380146 700.950629,862.195256 691.544828,852.615261 C682.139031,843.035267 674.748869,831.459613 669.374127,817.887954 C663.999384,804.316296 661.312054,788.349878 661.312054,769.988221 L661.312054,300.57083 L587.745635,300.57083 L587.745635,251.473602 L661.312054,251.473602 L661.312054,38.319787 L711.700012,38.319787 L711.700012,251.473602 L833.63887,251.473602 L833.63887,300.57083 L711.700012,300.57083 L711.700012,755.618301 C711.700012,778.769954 718.418339,796.133435 731.855195,807.709261 C745.292051,819.285088 760.408288,825.072915 777.204357,825.072915 C798.031484,825.072915 816.003009,820.881729 831.119472,812.499234 C846.235934,804.11674 855.473635,798.728074 858.832849,796.333074 L873.949236,844.232808 Z M1203.70853,305.360803 C1156.67953,306.957467 1115.52978,323.522629 1080.25803,355.056777 C1044.98628,386.590925 1020.29643,429.899836 1006.18773,484.984805 L1006.18773,874.170142 L955.799776,874.170142 L955.799776,251.473602 L1004.17222,251.473602 L1004.17222,404.752751 C1022.31197,360.844441 1046.32999,325.11958 1076.227,297.577096 C1106.124,270.034612 1138.20401,254.267773 1172.468,250.276109 C1179.18642,249.477777 1185.23292,249.078616 1190.60766,249.078616 L1203.70853,249.078616 L1203.70853,305.360803 Z M1414.55224,886.145075 C1390.3659,886.145075 1367.8595,881.155571 1347.03238,871.176408 C1326.20525,861.197246 1307.89781,847.625792 1292.1095,830.461635 C1276.3212,813.297477 1264.06025,792.940295 1255.32629,769.389474 C1246.59234,745.838653 1242.22542,720.491966 1242.22542,693.348647 C1242.22542,666.205327 1247.60008,641.45738 1258.34957,619.104059 C1269.09905,596.750738 1284.04733,577.391457 1303.19485,561.025632 C1322.34237,544.659807 1345.35264,531.886672 1372.22635,522.705845 C1399.10007,513.525018 1428.66071,508.934672 1460.90916,508.934672 C1489.12656,508.934672 1517.51149,511.928376 1546.06481,517.915872 C1574.61813,523.903367 1600.31573,532.086158 1623.15838,542.464485 L1623.15838,481.392325 C1623.15838,422.315692 1609.0499,375.414336 1580.8325,340.686857 C1552.6151,305.959377 1514.32064,288.595896 1465.94796,288.595896 C1440.41793,288.595896 1413.37666,294.982463 1384.82334,307.75579 C1356.27003,320.529116 1327.21326,338.890495 1297.65218,362.840483 L1278.50475,322.12571 C1345.68903,267.839073 1409.51314,240.696162 1469.97899,240.696162 C1533.13222,240.696162 1582.84784,262.450408 1619.12735,305.95955 C1655.40686,349.468692 1673.54634,409.542341 1673.54634,486.182298 L1673.54634,790.345608 C1673.54634,810.303929 1680.9365,820.282941 1695.71704,820.282941 L1695.71704,874.170142 C1692.35783,874.968474 1688.83071,875.567214 1685.13557,875.966382 C1681.44044,876.365549 1678.24923,876.565128 1675.56186,876.565128 C1662.12501,876.565128 1651.37568,871.176463 1643.31357,860.398968 C1635.25145,849.621474 1630.54863,836.64876 1629.20494,821.480435 L1629.20494,769.988221 C1605.0186,807.509867 1574.11429,836.24942 1536.4911,856.207742 C1498.8679,876.166063 1458.22202,886.145075 1414.55224,886.145075 L1414.55224,886.145075 Z M1424.62983,838.245341 C1463.59671,838.245341 1499.3718,829.46381 1531.95618,811.900488 C1564.54056,794.337166 1589.56633,771.185858 1607.03424,742.445874 C1617.78372,725.680884 1623.15838,709.714466 1623.15838,694.54614 L1623.15838,584.376752 C1598.97204,573.20009 1573.77832,564.817723 1547.57645,559.229392 C1521.37458,553.641061 1494.16535,550.846939 1465.94796,550.846939 C1439.74609,550.846939 1415.89603,554.239801 1394.39706,561.025632 C1372.89809,567.811463 1354.42269,577.191732 1338.9703,589.166726 C1323.51792,601.14172 1311.59289,615.711075 1303.19485,632.875233 C1294.79682,650.03939 1290.59786,668.999513 1290.59786,689.756167 C1290.59786,710.51282 1293.95703,730.071683 1300.67545,748.43334 C1307.39388,766.794998 1316.79954,782.561834 1328.89271,795.734328 C1340.98588,808.906821 1355.26233,819.284992 1371.72247,826.869155 C1388.18262,834.453317 1405.81823,838.245341 1424.62983,838.245341 L1424.62983,838.245341 Z M2049.66255,844.232808 C2046.97518,845.829472 2042.44031,848.823177 2036.05781,853.214008 C2029.6753,857.604839 2021.61331,861.796025 2011.87159,865.787688 C2002.12987,869.779352 1991.21259,873.371797 1979.11941,876.565128 C1967.02624,879.75846 1953.92551,881.355102 1939.81681,881.355102 C1925.70811,881.355102 1912.43941,878.960137 1900.01032,874.170142 C1887.58123,869.380146 1876.66395,862.195256 1867.25815,852.615261 C1857.85235,843.035267 1850.46219,831.459613 1845.08745,817.887954 C1839.7127,804.316296 1837.02537,788.349878 1837.02537,769.988221 L1837.02537,300.57083 L1763.45895,300.57083 L1763.45895,251.473602 L1837.02537,251.473602 L1837.02537,38.319787 L1887.41333,38.319787 L1887.41333,251.473602 L2009.35219,251.473602 L2009.35219,300.57083 L1887.41333,300.57083 L1887.41333,755.618301 C1887.41333,778.769954 1894.13166,796.133435 1907.56851,807.709261 C1921.00537,819.285088 1936.12161,825.072915 1952.91768,825.072915 C1973.7448,825.072915 1991.71633,820.881729 2006.83279,812.499234 C2021.94925,804.11674 2031.18695,798.728074 2034.54617,796.333074 L2049.66255,844.232808 Z M2260.50627,886.145075 C2236.31993,886.145075 2213.81353,881.155571 2192.9864,871.176408 C2172.15928,861.197246 2153.85183,847.625792 2138.06353,830.461635 C2122.27522,813.297477 2110.01428,792.940295 2101.28032,769.389474 C2092.54636,745.838653 2088.17945,720.491966 2088.17945,693.348647 C2088.17945,666.205327 2093.55411,641.45738 2104.3036,619.104059 C2115.05308,596.750738 2130.00136,577.391457 2149.14888,561.025632 C2168.2964,544.659807 2191.30667,531.886672 2218.18038,522.705845 C2245.05409,513.525018 2274.61473,508.934672 2306.86319,508.934672 C2335.08058,508.934672 2363.46552,511.928376 2392.01884,517.915872 C2420.57216,523.903367 2446.26976,532.086158 2469.11241,542.464485 L2469.11241,481.392325 C2469.11241,422.315692 2455.00392,375.414336 2426.78653,340.686857 C2398.56913,305.959377 2360.27467,288.595896 2311.90198,288.595896 C2286.37196,288.595896 2259.33069,294.982463 2230.77737,307.75579 C2202.22405,320.529116 2173.16729,338.890495 2143.6062,362.840483 L2124.45878,322.12571 C2191.64306,267.839073 2255.46717,240.696162 2315.93302,240.696162 C2379.08624,240.696162 2428.80186,262.450408 2465.08138,305.95955 C2501.36089,349.468692 2519.50037,409.542341 2519.50037,486.182298 L2519.50037,790.345608 C2519.50037,810.303929 2526.89053,820.282941 2541.67107,820.282941 L2541.67107,874.170142 C2538.31186,874.968474 2534.78474,875.567214 2531.0896,875.966382 C2527.39447,876.365549 2524.20326,876.565128 2521.51589,876.565128 C2508.07903,876.565128 2497.32971,871.176463 2489.2676,860.398968 C2481.20548,849.621474 2476.50265,836.64876 2475.15897,821.480435 L2475.15897,769.988221 C2450.97263,807.509867 2420.06832,836.24942 2382.44513,856.207742 C2344.82193,876.166063 2304.17605,886.145075 2260.50627,886.145075 L2260.50627,886.145075 Z M2270.58386,838.245341 C2309.55074,838.245341 2345.32583,829.46381 2377.91021,811.900488 C2410.49458,794.337166 2435.52035,771.185858 2452.98827,742.445874 C2463.73775,725.680884 2469.11241,709.714466 2469.11241,694.54614 L2469.11241,584.376752 C2444.92607,573.20009 2419.73234,564.817723 2393.53048,559.229392 C2367.32861,553.641061 2340.11938,550.846939 2311.90198,550.846939 C2285.70011,550.846939 2261.85005,554.239801 2240.35108,561.025632 C2218.85211,567.811463 2200.37671,577.191732 2184.92433,589.166726 C2169.47194,601.14172 2157.54691,615.711075 2149.14888,632.875233 C2140.75084,650.03939 2136.55189,668.999513 2136.55189,689.756167 C2136.55189,710.51282 2139.91105,730.071683 2146.62948,748.43334 C2153.34791,766.794998 2162.75357,782.561834 2174.84674,795.734328 C2186.93991,808.906821 2201.21635,819.284992 2217.6765,826.869155 C2234.13665,834.453317 2251.77226,838.245341 2270.58386,838.245341 L2270.58386,838.245341 Z M2654.76215,874.170142 L2654.76215,772.383207 L2699.10355,772.383207 L2699.10355,874.170142 L2654.76215,874.170142 Z M2799.93496,560.426885 C2799.93496,516.518576 2806.31738,475.005888 2819.08239,435.887577 C2831.84742,396.769267 2849.65097,362.840627 2872.49362,334.100643 C2895.3363,305.360659 2922.54552,282.608512 2954.12211,265.843523 C2985.69873,249.078533 3020.29811,240.696162 3057.92131,240.696162 C3105.62215,240.696162 3147.61171,253.469297 3183.8912,279.015949 C3220.17072,304.562602 3247.37995,340.087883 3265.51969,385.592857 L3216.13949,404.752751 C3200.68713,370.424436 3178.68461,343.481107 3150.13127,323.92195 C3121.57796,304.362793 3090.16979,294.583363 3055.90579,294.583363 C3027.01656,294.583363 3000.14325,301.369091 2975.28506,314.94075 C2950.42689,328.512408 2928.76028,347.272952 2910.28459,371.222937 C2891.80892,395.172922 2877.19655,423.313735 2866.44707,455.646218 C2855.69758,487.978701 2850.32292,522.905239 2850.32292,560.426885 C2850.32292,597.948532 2855.86554,633.274231 2866.95095,666.405046 C2878.03635,699.535862 2892.81668,728.275414 2911.29235,752.624567 C2929.76804,776.97372 2951.60261,796.333001 2976.79669,810.702994 C3001.99081,825.072988 3028.69616,832.257875 3056.91355,832.257875 C3075.05332,832.257875 3093.02484,829.064591 3110.82866,822.677928 C3128.63251,816.291265 3145.09242,807.908894 3160.20886,797.530568 C3175.32533,787.152241 3188.42606,774.977847 3199.51147,761.007021 C3210.59687,747.036195 3218.15501,732.466839 3222.18605,717.298514 L3271.56625,734.06342 C3264.84783,755.618409 3254.60238,775.776013 3240.82959,794.536834 C3227.05683,813.297656 3210.76489,829.463656 3191.95327,843.035315 C3173.14169,856.606973 3152.31488,867.184726 3129.47221,874.768888 C3106.62956,882.353051 3083.11542,886.145075 3058.92907,886.145075 C3021.97773,886.145075 2987.71425,877.563126 2956.13763,860.398968 C2924.56104,843.234811 2897.18385,819.684345 2874.00526,789.746861 C2850.82669,759.809377 2832.68721,725.281997 2819.58627,686.163687 C2806.48534,647.045376 2799.93496,605.133527 2799.93496,560.426885 L2799.93496,560.426885 Z M3805.73412,874.170142 L3755.34616,874.170142 L3755.34616,526.897072 C3755.34616,372.818825 3712.01295,295.780856 3625.34523,295.780856 C3603.84626,295.780856 3582.8515,300.570782 3562.36029,310.150776 C3541.86908,319.730771 3522.72184,333.302228 3504.91801,350.86555 C3487.11419,368.428875 3471.49406,388.985637 3458.05721,412.536457 C3444.62034,436.087278 3434.54286,461.433965 3427.82444,488.577285 L3427.82444,874.170142 L3377.43648,874.170142 L3377.43648,0 L3427.82444,0 L3427.82444,399.962777 C3449.32341,351.264472 3479.05201,312.545907 3517.01112,283.805923 C3554.97024,255.065939 3595.78408,240.696162 3639.45386,240.696162 C3668.34309,240.696162 3693.20091,247.08273 3714.02804,259.856056 C3734.85517,272.629382 3752.15485,290.990765 3765.92764,314.94075 C3779.70042,338.890735 3789.77791,367.82987 3796.16041,401.759017 C3802.54291,435.688165 3805.73412,473.807989 3805.73412,516.119632 L3805.73412,874.170142 Z M4078.89238,886.145075 C4054.70602,886.145075 4032.19961,881.155571 4011.37251,871.176408 C3990.54538,861.197246 3972.23795,847.625792 3956.44964,830.461635 C3940.66133,813.297477 3928.40037,792.940295 3919.66643,769.389474 C3910.93246,745.838653 3906.56556,720.491966 3906.56556,693.348647 C3906.56556,666.205327 3911.94022,641.45738 3922.68971,619.104059 C3933.43919,596.750738 3948.38746,577.391457 3967.53499,561.025632 C3986.68249,544.659807 4009.69278,531.886672 4036.56649,522.705845 C4063.4402,513.525018 4093.00084,508.934672 4125.2493,508.934672 C4153.46669,508.934672 4181.85161,511.928376 4210.40495,517.915872 C4238.95826,523.903367 4264.65585,532.086158 4287.49852,542.464485 L4287.49852,481.392325 C4287.49852,422.315692 4273.39003,375.414336 4245.17264,340.686857 C4216.95522,305.959377 4178.66077,288.595896 4130.28809,288.595896 C4104.75806,288.595896 4077.71679,294.982463 4049.16348,307.75579 C4020.61014,320.529116 3991.55338,338.890495 3961.99231,362.840483 L3942.84489,322.12571 C4010.02916,267.839073 4073.85326,240.696162 4134.31913,240.696162 C4197.47233,240.696162 4247.18797,262.450408 4283.46748,305.95955 C4319.74698,349.468692 4337.88648,409.542341 4337.88648,486.182298 L4337.88648,790.345608 C4337.88648,810.303929 4345.27663,820.282941 4360.05718,820.282941 L4360.05718,874.170142 C4356.69796,874.968474 4353.17083,875.567214 4349.47571,875.966382 C4345.78057,876.365549 4342.58936,876.565128 4339.902,876.565128 C4326.46513,876.565128 4315.7158,871.176463 4307.6537,860.398968 C4299.59158,849.621474 4294.88876,836.64876 4293.54508,821.480435 L4293.54508,769.988221 C4269.35872,807.509867 4238.45443,836.24942 4200.83123,856.207742 C4163.20804,876.166063 4122.56215,886.145075 4078.89238,886.145075 L4078.89238,886.145075 Z M4088.96997,838.245341 C4127.93684,838.245341 4163.71194,829.46381 4196.29632,811.900488 C4228.88069,794.337166 4253.90644,771.185858 4271.37437,742.445874 C4282.12386,725.680884 4287.49852,709.714466 4287.49852,694.54614 L4287.49852,584.376752 C4263.31217,573.20009 4238.11843,564.817723 4211.91658,559.229392 C4185.71471,553.641061 4158.50548,550.846939 4130.28809,550.846939 C4104.08622,550.846939 4080.23616,554.239801 4058.73719,561.025632 C4037.23822,567.811463 4018.7628,577.191732 4003.31044,589.166726 C3987.85805,601.14172 3975.93301,615.711075 3967.53499,632.875233 C3959.13694,650.03939 3954.938,668.999513 3954.938,689.756167 C3954.938,710.51282 3958.29714,730.071683 3965.01559,748.43334 C3971.73401,766.794998 3981.13966,782.561834 3993.23285,795.734328 C4005.32601,808.906821 4019.60246,819.284992 4036.06261,826.869155 C4052.52276,834.453317 4070.15836,838.245341 4088.96997,838.245341 L4088.96997,838.245341 Z M4712.82838,844.232808 C4710.14102,845.829472 4705.60613,848.823177 4699.22363,853.214008 C4692.84113,857.604839 4684.77914,861.796025 4675.03741,865.787688 C4665.29569,869.779352 4654.3784,873.371797 4642.28524,876.565128 C4630.19208,879.75846 4617.09134,881.355102 4602.98263,881.355102 C4588.87395,881.355102 4575.60523,878.960137 4563.17614,874.170142 C4550.74706,869.380146 4539.82978,862.195256 4530.42397,852.615261 C4521.01817,843.035267 4513.62801,831.459613 4508.25327,817.887954 C4502.87853,804.316296 4500.1912,788.349878 4500.1912,769.988221 L4500.1912,300.57083 L4426.62478,300.57083 L4426.62478,251.473602 L4500.1912,251.473602 L4500.1912,38.319787 L4550.57916,38.319787 L4550.57916,251.473602 L4672.51801,251.473602 L4672.51801,300.57083 L4550.57916,300.57083 L4550.57916,755.618301 C4550.57916,778.769954 4557.2975,796.133435 4570.73434,807.709261 C4584.17121,819.285088 4599.28743,825.072915 4616.0835,825.072915 C4636.91063,825.072915 4654.88215,820.881729 4669.99862,812.499234 C4685.11508,804.11674 4694.3528,798.728074 4697.71199,796.333074 L4712.82838,844.232808 Z" id="Strata.chat"></path>
            </g>
        </g>
    </g>
</svg>