<?xml version="1.0" encoding="UTF-8" standalone="no"?>
<svg width="1024px" height="1024px" viewBox="0 0 1024 1024" version="1.1" xmlns="http://www.w3.org/2000/svg" xmlns:xlink="http://www.w3.org/1999/xlink" xmlns:sketch="http://www.bohemiancoding.com/sketch/ns">
    <!-- Generator: Sketch 3.4.2 (15855) - http://www.bohemiancoding.com/sketch -->
    <title>logomark</title>
    <desc>Created with Sketch.</desc>
    <defs></defs>
    <g id="Page-1" stroke="none" stroke-width="1" fill="none" fill-rule="evenodd" sketch:type="MSPage">
        <g id="logomark" sketch:type="MSArtboardGroup">
            <path d="M860.338692,589.120408 L490.399841,527.009567 L168.078442,775.801195 L492.016073,859.659273 C511.024203,864.579927 528.575166,874.871763 542.75611,888.633502 L860.338692,589.120408 Z M486.968657,442.799441 L945.021336,519.700162 C996.187514,528.290256 1007.12734,564.060601 969.406029,599.642725 L525.581917,1018.29739 C518.038883,1025.41265 509.830939,1023.07651 507.242376,1013.05396 L494.142561,962.333375 C491.556946,952.322246 481.319705,942.099106 471.254512,939.493519 L75.1092119,836.942965 C24.898172,823.94478 17.4778121,787.720377 58.4977879,756.062505 L453.543664,451.179049 C461.767045,444.832513 476.699687,441.075423 486.968657,442.799441 Z" id="Shape-Copy" fill="#273646" sketch:type="MSShapeGroup"></path>
            <path d="M860.338692,380.268026 L490.399841,318.157185 L168.078442,566.948814 L492.016073,650.806892 C511.024203,655.727546 528.575166,666.019381 542.75611,679.781121 L860.338692,380.268026 Z M486.968657,233.94706 L945.021336,310.847781 C996.187514,319.437875 1007.12734,355.20822 969.406029,390.790344 L525.581917,809.445008 C518.038883,816.560273 509.830939,814.224125 507.242376,804.201583 L494.142561,753.480994 C491.556946,743.469865 481.319705,733.246725 471.254512,730.641137 L75.1092119,628.090584 C24.898172,615.092399 17.4778121,578.867996 58.4977879,547.210123 L453.543664,242.326668 C461.767045,235.980132 476.699687,232.223042 486.968657,233.94706 Z" id="Shape" fill="#2D4053" sketch:type="MSShapeGroup"></path>
            <path d="M486.968657,0.418714617 L945.021336,77.3194353 C996.187514,85.90953 1007.12734,121.679875 969.406029,157.261999 L525.581917,575.916663 C518.038883,583.031928 509.830939,580.69578 507.242376,570.673238 L494.142561,519.952648 C491.556946,509.94152 481.319705,499.718379 471.254512,497.112792 L75.1092119,394.562238 C24.898172,381.564053 17.4778121,345.339651 58.4977879,313.681778 L453.543664,8.79832262 C461.767045,2.45178679 476.699687,-1.30530359 486.968657,0.418714617 Z" id="Shape" fill="#18B491" sketch:type="MSShapeGroup"></path>
        </g>
    </g>
</svg>