<?xml version="1.0" encoding="UTF-8" standalone="no"?>
<svg width="250px" height="86px" viewBox="0 0 250 86" version="1.1" xmlns="http://www.w3.org/2000/svg" xmlns:xlink="http://www.w3.org/1999/xlink" xmlns:sketch="http://www.bohemiancoding.com/sketch/ns">
    <!-- Generator: Sketch 3.4.2 (15855) - http://www.bohemiancoding.com/sketch -->
    <title>sidebar-logo</title>
    <desc>Created with Sketch.</desc>
    <defs></defs>
    <g id="Page-1" stroke="none" stroke-width="1" fill="none" fill-rule="evenodd" sketch:type="MSPage">
        <g id="sidebar-logo" sketch:type="MSArtboardGroup">
            <g id="Group-Copy" sketch:type="MSLayerGroup">
                <path d="M100.054212,53.917949 L97.1112428,56.5324313 L89.1413649,56.5324313 L86.1665802,53.917949 L86.1665802,49.8846318 L90.7798827,49.8846318 L90.7798827,51.9092614 L95.4409091,51.9092614 L95.4409091,46.3295736 L89.1413649,46.3295736 L86.1665802,43.6991493 L86.1665802,34.1180282 L89.1413649,31.487604 L97.1112428,31.487604 L100.054212,34.1020863 L100.054212,37.9919258 L95.4409091,37.9919258 L95.4409091,36.1107739 L90.7798827,36.1107739 L90.7798827,41.6904617 L97.1112428,41.6904617 L100.054212,44.320886 L100.054212,53.917949 Z M115.412716,36.1107739 L110.831229,36.1107739 L110.831229,56.5324313 L106.202019,56.5324313 L106.202019,36.1107739 L101.620532,36.1107739 L101.620532,31.487604 L115.412716,31.487604 L115.412716,36.1107739 Z M131.85296,56.5324313 L126.905591,56.5324313 L122.976329,46.3295736 L121.608247,46.3295736 L121.608247,56.5324313 L116.979036,56.5324313 L116.979036,31.487604 L128.06687,31.487604 L131.009839,34.1180282 L131.009839,43.3165422 L127.860067,46.2658057 L131.85296,56.5324313 Z M121.607138,41.6904617 L126.395428,41.6904617 L126.395428,36.0948319 L121.607138,36.0948319 L121.607138,41.6904617 Z M145.191156,56.5324313 L144.0776,50.9527435 L139.241586,50.9527435 L138.12803,56.5324313 L133.41928,56.5324313 L138.414373,31.487604 L144.904813,31.487604 L149.899906,56.5324313 L145.191156,56.5324313 Z M143.154939,46.3295736 L141.659593,38.8368499 L140.164247,46.3295736 L143.154939,46.3295736 Z M163.69209,36.1107739 L159.110603,36.1107739 L159.110603,56.5324313 L154.481393,56.5324313 L154.481393,36.1107739 L149.899906,36.1107739 L149.899906,31.487604 L163.69209,31.487604 L163.69209,36.1107739 Z M175.463965,56.5324313 L174.350409,50.9527435 L169.514396,50.9527435 L168.40084,56.5324313 L163.69209,56.5324313 L168.687183,31.487604 L175.177622,31.487604 L180.172715,56.5324313 L175.463965,56.5324313 Z M173.427749,46.3295736 L171.932403,38.8368499 L170.437056,46.3295736 L173.427749,46.3295736 Z M181.739036,56.5324313 L181.739036,51.9092614 L186.352338,51.9092614 L186.352338,56.5324313 L181.739036,56.5324313 Z M202.108541,53.917949 L199.086032,56.5324313 L190.861627,56.5324313 L187.918659,53.917949 L187.918659,34.1180282 L190.861627,31.487604 L199.086032,31.487604 L202.108541,34.1339702 L202.108541,37.9919258 L197.495238,37.9919258 L197.495238,36.1107739 L192.531961,36.1107739 L192.531961,51.9092614 L197.495238,51.9092614 L197.495238,49.8846318 L202.108541,49.8846318 L202.108541,53.917949 Z M218.135179,56.5324313 L213.521876,56.5324313 L213.521876,46.3295736 L208.288164,46.3295736 L208.288164,56.5324313 L203.674861,56.5324313 L203.674861,31.487604 L208.288164,31.487604 L208.288164,41.6904617 L213.521876,41.6904617 L213.521876,31.487604 L218.135179,31.487604 L218.135179,56.5324313 Z M231.490506,56.5324313 L230.37695,50.9527435 L225.540936,50.9527435 L224.427381,56.5324313 L219.71863,56.5324313 L224.713724,31.487604 L231.204163,31.487604 L236.199256,56.5324313 L231.490506,56.5324313 Z M229.45429,46.3295736 L227.958943,38.8368499 L226.463597,46.3295736 L229.45429,46.3295736 Z M249.99144,36.1107739 L245.409953,36.1107739 L245.409953,56.5324313 L240.780743,56.5324313 L240.780743,36.1107739 L236.199256,36.1107739 L236.199256,31.487604 L249.99144,31.487604 L249.99144,36.1107739 Z" id="STRATA.CHAT" fill="#FFFFFF" sketch:type="MSShapeGroup"></path>
                <path d="M69.4524087,49.5500888 L38.449637,44.3337486 L11.4374518,65.228358 L38.5850856,72.2711263 C40.1780642,72.6843844 41.6489249,73.5487377 42.8373607,74.7045088 L69.4524087,49.5500888 Z M38.1620862,37.2614139 L76.5492483,43.7198728 C80.8372362,44.4413066 81.7540501,47.4454566 78.5928106,50.433799 L41.3980753,85.5942493 C40.7659304,86.1918204 40.0780626,85.9956205 39.8611277,85.1538836 L38.7632961,80.8941466 C38.5466083,80.0533682 37.6886751,79.1947841 36.8451603,78.9759555 L3.64615387,70.3633114 C-0.561788611,69.2716669 -1.1836528,66.2293831 2.2540314,63.5706164 L35.3609005,37.96517 C36.050062,37.4321601 37.3014939,37.1166233 38.1620862,37.2614139 Z" id="Shape-Copy" fill="#FFFFFF" sketch:type="MSShapeGroup"></path>
                <path d="M69.4524087,32.0097521 L38.449637,26.7934119 L11.4374518,47.6880213 L38.5850856,54.7307896 C40.1780642,55.1440477 41.6489249,56.008401 42.8373607,57.1641721 L69.4524087,32.0097521 Z M38.1620862,19.7210772 L76.5492483,26.1795361 C80.8372362,26.9009699 81.7540501,29.9051199 78.5928106,32.8934623 L41.3980753,68.0539126 C40.7659304,68.6514837 40.0780626,68.4552838 39.8611277,67.6135469 L38.7632961,63.3538099 C38.5466083,62.5130315 37.6886751,61.6544474 36.8451603,61.4356188 L3.64615387,52.8229747 C-0.561788611,51.7313302 -1.1836528,48.6890464 2.2540314,46.0302797 L35.3609005,20.4248333 C36.050062,19.8918234 37.3014939,19.5762866 38.1620862,19.7210772 Z" id="Shape" fill="#FFFFFF" sketch:type="MSShapeGroup"></path>
                <path d="M38.1620862,0.108345027 L76.5492483,6.56680399 C80.8372362,7.28823773 81.7540501,10.2923878 78.5928106,13.2807302 L41.3980753,48.4411805 C40.7659304,49.0387516 40.0780626,48.8425517 39.8611277,48.0008148 L38.7632961,43.7410777 C38.5466083,42.9002994 37.6886751,42.0417153 36.8451603,41.8228867 L3.64615387,33.2102425 C-0.561788611,32.1185981 -1.1836528,29.0763143 2.2540314,26.4175476 L35.3609005,0.812101168 C36.050062,0.279091323 37.3014939,-0.0364455649 38.1620862,0.108345027 Z" id="Shape" fill="#18B491" sketch:type="MSShapeGroup"></path>
            </g>
        </g>
    </g>
</svg>